<svg xmlns="http://www.w3.org/2000/svg" viewBox="0 5 178 403.3" enable-background="new 0 5 178 403.3"><g><g fill="#bdbdbd"><path d="M59.3 47.2C59.3 30.6 72 17.5 89 17.5s29.7 13.2 29.7 29.7c0 16.6-12.7 30.2-29.7 30.2S59.3 63.7 59.3 47.2z"/><path d="M44.8 246.8l8.6 153.5h67.8l8.6-153.5z"/><path d="M163.8 249.2c2.7 0 4.8-2.1 4.8-4.6l-27.5-138.5c0-2.5-2.2-4.6-4.8-4.6h-98c-2.7 0-4.8 2.1-4.8 4.6L6 244.7c0 2.5 2.2 4.6 4.8 4.6h153z"/><path d="M120.9 400.3h26.6c0-14.2-11.9-25.7-26.6-25.7"/><path d="M53.1 400.3H26.5c0-14.2 11.9-25.7 26.6-25.7"/></g></g></svg>