<svg xmlns="http://www.w3.org/2000/svg" viewBox="99.3 213.9 387.39998 141.7" enable-background="new 99.3 213.9 347.7 155" width="387.4" height="141.7"><g><path fill="#b7b7b7" d="M401.3 286.8l-27.6 18.5-13.2 50.3h126.2l-14.3-50.3-27.5-18.5-21.8 32.7z"/><g><g><g><g><path stroke-miterlimit="10" d="M423.1 291.5" fill="none" stroke="#b7b7b7" stroke-width="2.927" stroke-linecap="round" stroke-linejoin="round"/></g></g></g><path fill="#b7b7b7" d="M434.7 319.4l-8.7-23.9 5.5-8.8H414l5.5 8.8-8.1 23.9z"/><g fill="#fff"><path d="M439.3 305.9h4.7v4.7h-4.7z"/><g><path d="M449 305.9h4.7v4.7H449z"/><path d="M443.9 310.6h4.7v4.7h-4.7z"/><path d="M453.7 310.6h4.7v4.7h-4.7z"/></g></g><path d="M413.9 330.3l-1.8-12.9c-.3-2.3-2.4-3.9-4.7-3.5l-6.6.9-.7-5-1 .1-2.2-15.6-1.4.2 2.2 15.6-.8.1.7 5c-2.2.4-3.8 2.4-3.5 4.7l1.8 12.9c.3 2.3 2.4 3.9 4.7 3.5l9.7-1.4c2.4-.2 4-2.3 3.6-4.6z" fill="#fff"/><path d="M423.1 308.6" fill="#fff"/></g><g><path d="M440.4 253.7c0 9.6-7.8 17.4-17.4 17.4-9.6 0-17.4-7.8-17.4-17.4h34.8z" fill="#b7b7b7"/><g transform="translate(17.6 -13.3)"><path d="M405.5 261.7h23.1s3.3-.3 3.3 1c0 1.6-15 6.4-26.3 7.1-11.3-.7-26.3-5.5-26.3-7.1 0-1.3 3.3-1 3.3-1h22.9" fill="#fff"/><path d="M382.4 253.3c0-13 10.6-24.1 23.1-24.1 12.5 0 22.3 11.1 22.3 24.1h-45.4z" fill="#b7b7b7"/><path d="M405.5 259.6h23.1s3.3-.3 3.3 1c0 1.6-15 6.4-26.3 7.1-11.3-.7-26.3-5.5-26.3-7.1 0-1.3 3.3-1 3.3-1h22.9" fill="#b7b7b7"/><g fill="#b7b7b7"><path d="M382.4 253.2h3.2v3.2h-3.2z"/><g><path d="M388.8 253.2h3.2v3.2h-3.2z"/><path d="M395.3 253.2h3.2v3.2h-3.2z"/><path d="M401.7 253.2h3.2v3.2h-3.2z"/><path d="M408.2 253.2h3.2v3.2h-3.2z"/><path d="M414.6 253.2h3.2v3.2h-3.2z"/><path d="M421 253.2h3.2v3.2H421z"/><path d="M385.6 256.5h3.2v3.2h-3.2z"/><path d="M392.1 256.5h3.2v3.2h-3.2z"/><path d="M398.5 256.5h3.2v3.2h-3.2z"/><path d="M404.9 256.5h3.2v3.2h-3.2z"/><path d="M411.4 256.5h3.2v3.2h-3.2z"/><path d="M417.8 256.5h3.2v3.2h-3.2z"/><path d="M424.3 256.5h3.2v3.2h-3.2z"/></g></g><circle cx="405.9" cy="229.2" r="2" fill="#b7b7b7"/><g><path fill="#fff" d="M403.3 237.6h-3.5v3.6l-2.6 2.5 2.6 2.5v3.6h3.5l2.6 2.5 2.5-2.5h3.6v-3.6l2.5-2.5-2.5-2.5v-3.6h-3.6z"/><circle cx="405.9" cy="243.7" r="4" fill="#b7b7b7"/><circle cx="405.9" cy="243.7" r="2.6" fill="#fff"/><g><path stroke-miterlimit="10" d="M405.6 232.6s.1-.1.1-.3c0 0-.2 0-.4.2v-.8c.2.2.4.2.4.2s0-.2-.2-.4h.8c-.2.2-.2.4-.2.4s.2 0 .4-.2v.8c-.2-.2-.4-.2-.4-.2 0 .2.1.3.1.3" fill="#fff" stroke="#fff" stroke-width=".132"/><path stroke-miterlimit="10" d="M404.5 233.8c-.4-.2-.8-.4-1.4 0-.6.4-.4 1.2-.4 1.3l.3.8.3-.1-.3-.8v-.4c0-.3.1-.4.3-.5.4-.3.7-.1 1.1 0 .4.2.7.3 1.2.3v-.3c-.5-.1-.8-.2-1.1-.3z" fill="#fff" stroke="#fff" stroke-width=".132"/><circle stroke-miterlimit="10" cx="405.3" cy="233.8" r=".2" fill="#fff" stroke="#fff" stroke-width=".132"/><circle stroke-miterlimit="10" cx="404.8" cy="233.6" r=".2" fill="#fff" stroke="#fff" stroke-width=".132"/><circle stroke-miterlimit="10" cx="404.2" cy="233.4" r=".2" fill="#fff" stroke="#fff" stroke-width=".132"/><circle stroke-miterlimit="10" cx="403.5" cy="233.3" r=".2" fill="#fff" stroke="#fff" stroke-width=".132"/><circle stroke-miterlimit="10" cx="403" cy="233.5" r=".2" fill="#fff" stroke="#fff" stroke-width=".132"/><circle stroke-miterlimit="10" cx="402.6" cy="234" r=".2" fill="#fff" stroke="#fff" stroke-width=".132"/><circle stroke-miterlimit="10" cx="402.4" cy="234.6" r=".2" fill="#fff" stroke="#fff" stroke-width=".132"/><circle stroke-miterlimit="10" cx="402.5" cy="235.2" r=".2" fill="#fff" stroke="#fff" stroke-width=".132"/><circle stroke-miterlimit="10" cx="402.7" cy="235.7" r=".2" fill="#fff" stroke="#fff" stroke-width=".132"/><path stroke-miterlimit="10" d="M403.3 237.1l-.4-1.2.6-.2s-.3.3-.2.7c0 0 .2-.1.4-.4l.3.7c-.3-.1-.5 0-.5 0s.1.2.3.4" fill="#fff" stroke="#fff" stroke-width=".132"/><path stroke-miterlimit="10" d="M404.6 236.1c0-.1-.1-.2.1-.2s.1.3.2.3c0 .1.1.1.2-.1s0-.5-.2-.5-.4.2-.4.2.1-.7-.2-.8c-.3.3 0 .9 0 .9s-.2-.2-.4-.1-.1.4 0 .6c.1.2.2.1.2 0s-.1-.3.1-.4c.2 0 .2.1.2.1h.2z" fill="#fff" stroke="#fff" stroke-width=".132"/><path stroke-miterlimit="10" d="M404.4 236.4s-.1 0-.1-.1c0 0 0-.1.1-.1h.3s.1 0 .1.1c0 0 0 .1-.1.1h-.3z" fill="#fff" stroke="#fff" stroke-width=".132"/><path stroke-miterlimit="10" d="M407.2 233.8c.4-.2.8-.4 1.4 0 .6.4.4 1.2.4 1.3l-.3.8-.3-.1.3-.8v-.4c0-.3-.1-.4-.3-.5-.4-.3-.7-.1-1.1 0-.4.2-.7.3-1.2.3v-.3c.5-.1.8-.2 1.1-.3z" fill="#fff" stroke="#fff" stroke-width=".132"/><circle stroke-miterlimit="10" cx="406.4" cy="233.8" r=".2" fill="#fff" stroke="#fff" stroke-width=".132"/><circle stroke-miterlimit="10" cx="407" cy="233.6" r=".2" fill="#fff" stroke="#fff" stroke-width=".132"/><circle stroke-miterlimit="10" cx="407.6" cy="233.4" r=".2" fill="#fff" stroke="#fff" stroke-width=".132"/><circle stroke-miterlimit="10" cx="408.2" cy="233.3" r=".2" fill="#fff" stroke="#fff" stroke-width=".132"/><circle stroke-miterlimit="10" cx="408.8" cy="233.5" r=".2" fill="#fff" stroke="#fff" stroke-width=".132"/><circle stroke-miterlimit="10" cx="409.2" cy="234" r=".2" fill="#fff" stroke="#fff" stroke-width=".132"/><circle stroke-miterlimit="10" cx="409.3" cy="234.6" r=".2" fill="#fff" stroke="#fff" stroke-width=".132"/><circle stroke-miterlimit="10" cx="409.2" cy="235.2" r=".2" fill="#fff" stroke="#fff" stroke-width=".132"/><circle stroke-miterlimit="10" cx="409" cy="235.7" r=".2" fill="#fff" stroke="#fff" stroke-width=".132"/><path stroke-miterlimit="10" d="M408.4 237.1l.4-1.2-.6-.2s.3.3.2.7c0 0-.2-.1-.4-.4l-.3.7c.3-.1.5 0 .5 0s-.1.2-.3.4" fill="#fff" stroke="#fff" stroke-width=".132"/><path stroke-miterlimit="10" d="M408.5 236.6c-.2.3-.7.2-.7.2-.3 0-.4-.2-.4-.4h-.2s0 .1-.1.1c-.1.1-.3.2-.5.1-.3 0-.6-.2-.6-.5H405.7c0 .3-.3.5-.6.5-.2 0-.4-.1-.5-.1l-.1-.1h-.2c0 .2-.2.4-.4.4 0 0-.5.1-.7-.2h-.2c.2.3.5.3.7.3h.2c.3 0 .5-.2.6-.5v.1c.1.1.3.2.5.2.3 0 .6-.2.7-.5.1.3.4.5.7.5.2 0 .4-.1.5-.2v-.1c.1.3.3.4.6.5h.2c.2 0 .5-.1.7-.3h.1z" fill="#fff" stroke="#fff" stroke-width=".132"/><path stroke-miterlimit="10" d="M407.1 236.1c0-.1.1-.2-.1-.2s-.1.3-.2.3-.1.1-.2-.1 0-.5.2-.5.4.2.4.2-.1-.7.2-.8c.3.3 0 .9 0 .9s.2-.2.4-.1.1.4 0 .6c-.1.2-.2.1-.2 0s.1-.3-.1-.4c-.2 0-.2.1-.2.1h-.2z" fill="#fff" stroke="#fff" stroke-width=".132"/><circle stroke-miterlimit="10" cx="408.6" cy="236.5" r=".2" fill="#fff" stroke="#fff" stroke-width=".132"/><path stroke-miterlimit="10" d="M407.4 236.4s.1 0 .1-.1c0 0 0-.1-.1-.1h-.3s-.1 0-.1.1c0 0 0 .1.1.1h.3z" fill="#fff" stroke="#fff" stroke-width=".132"/><path stroke-miterlimit="10" d="M405.9 236.7c1.8 0 2.6.4 2.6.5 0 0 .1.1 0 .1h-.1s-.8-.4-2.6-.4-2.6.4-2.6.4h-.1v-.1c.2 0 1-.5 2.8-.5" fill="#fff" stroke="#fff" stroke-width=".132"/><path stroke-miterlimit="10" d="M405.9 237.5c1.3 0 2.1.3 2.4.4l.1-.5s-.8-.4-2.6-.4-2.6.4-2.6.4l.1.5c.4-.2 1.2-.4 2.6-.4z" fill="#fff" stroke="#fff" stroke-width=".132"/><g><path stroke-miterlimit="10" d="M408.2 238.6h-.1c-.2-.1-.9-.3-2.1-.3-1.2 0-1.9.2-2.1.3-.2.1-.4 0-.5-.2-.1-.2 0-.4.2-.5.3-.1 1.1-.4 2.4-.4 1.4 0 2.1.3 2.4.4.2.1.3.3.2.5-.2.1-.3.2-.4.2z" fill="#fff" stroke="#fff" stroke-width=".132"/></g><path stroke-miterlimit="10" d="M406 236.1s.3 0 .5.2v-.8c-.2.3-.5.2-.5.2 0-.4.4-.6.4-.6h-1.2s.4.2.4.6c0 0-.3 0-.5-.2v.8c.2-.3.5-.2.5-.2" fill="#fff" stroke="#fff" stroke-width=".132"/><circle stroke-miterlimit="10" cx="405.9" cy="235.9" r=".2" fill="#fff" stroke="#fff" stroke-width=".132"/><path stroke-miterlimit="10" fill="#fff" stroke="#fff" stroke-width=".132" d="M405.6 233.8v1.4"/><path stroke-miterlimit="10" fill="#fff" stroke="#fff" stroke-width=".132" d="M406.2 233.8v1.4"/><circle stroke-miterlimit="10" cx="405.9" cy="235" r=".2" fill="#fff" stroke="#fff" stroke-width=".132"/><circle stroke-miterlimit="10" cx="405.9" cy="234.7" r=".2" fill="#fff" stroke="#fff" stroke-width=".132"/><circle stroke-miterlimit="10" cx="405.9" cy="234.3" r=".2" fill="#fff" stroke="#fff" stroke-width=".132"/><circle stroke-miterlimit="10" cx="405.9" cy="234" r=".2" fill="#fff" stroke="#fff" stroke-width=".132"/><path stroke-miterlimit="10" fill="#fff" stroke="#fff" stroke-width=".132" d="M405.3 233.5h1.1"/><g stroke-miterlimit="10" stroke="#fff" stroke-width=".132"><circle cx="405.9" cy="233.2" r=".6" fill="#fff"/><g fill="none"><path d="M406.5 233h-.4v-.4"/><path d="M405.3 233h.4v-.4"/></g><g fill="#fff"><circle cx="405.9" cy="232.6" r=".1"/><circle cx="405.9" cy="232.8" r=".1"/><circle cx="405.9" cy="232.9" r=".1"/><circle cx="405.9" cy="233.1" r=".1"/></g><g fill="#fff"><circle cx="405.2" cy="233.2" r=".1"/><circle cx="405.4" cy="233.2" r=".1"/><circle cx="405.6" cy="233.2" r=".1"/><circle cx="405.8" cy="233.2" r=".1"/><circle cx="406" cy="233.2" r=".1"/><circle cx="406.2" cy="233.2" r=".1"/><circle cx="406.3" cy="233.2" r=".1"/><circle cx="406.5" cy="233.2" r=".1"/></g></g><circle stroke-miterlimit="10" cx="405.9" cy="232.2" r=".2" fill="#fff" stroke="#fff" stroke-width=".132"/><path stroke-miterlimit="10" fill="#fff" stroke="#fff" stroke-width=".132" d="M405.5 237h.6v.3h-.6z"/><path stroke-miterlimit="10" fill="#fff" stroke="#fff" stroke-width=".132" d="M403.264 237.486l.478-.145.087.288-.48.145z"/><path stroke-miterlimit="10" fill="#fff" stroke="#fff" stroke-width=".132" d="M408.31 237.756l-.477-.145.087-.286.478.145z"/><ellipse transform="matrix(.989 -.148 .148 .989 -30.702 62.617)" stroke-miterlimit="10" cx="404.7" cy="237.2" rx=".3" ry=".1" fill="#fff" stroke="#fff" stroke-width=".132"/><ellipse transform="matrix(-.989 -.148 .148 -.989 774.292 532.21)" stroke-miterlimit="10" cx="407" cy="237.2" rx=".3" ry=".1" fill="#fff" stroke="#fff" stroke-width=".132"/></g></g></g></g><path fill="#b7b7b7" d="M227.1 286.8l-27.5 18.5-13.2 50.3h126.1l-14.2-50.3-27.5-18.5-21.9 32.7z"/><g><g><g><g><path stroke-miterlimit="10" d="M249 291.5" fill="none" stroke="#b7b7b7" stroke-width="2.927" stroke-linecap="round" stroke-linejoin="round"/></g></g></g><path fill="#b7b7b7" d="M260.6 319.4l-8.7-23.9 5.5-8.8h-17.5l5.5 8.8-8.1 23.9z"/><g fill="#fff"><path d="M265.1 305.9h4.7v4.7h-4.7z"/><g><path d="M274.9 305.9h4.7v4.7h-4.7z"/><path d="M269.8 310.6h4.7v4.7h-4.7z"/><path d="M279.6 310.6h4.7v4.7h-4.7z"/></g></g><path d="M239.8 330.3l-1.8-12.9c-.3-2.3-2.4-3.9-4.7-3.5l-6.6.9-.7-5-1 .1-2.2-15.6-1.4.2 2.2 15.6-.8.1.7 5c-2.2.4-3.8 2.4-3.5 4.7l1.8 12.9c.3 2.3 2.4 3.9 4.7 3.5l9.7-1.4c2.3-.2 3.9-2.3 3.6-4.6z" fill="#fff"/><path d="M249 308.6" fill="#fff"/></g><g><path d="M266.3 253.7c0 9.6-7.8 17.4-17.4 17.4-9.6 0-17.4-7.8-17.4-17.4h34.8z" fill="#b7b7b7"/><g transform="translate(17.6 -13.3)"><path d="M231.3 261.7h23.1s3.3-.3 3.3 1c0 1.6-15 6.4-26.3 7.1-11.3-.7-26.3-5.5-26.3-7.1 0-1.3 3.3-1 3.3-1h22.9" fill="#fff"/><path d="M208.3 253.3c0-13 10.6-24.1 23.1-24.1 12.5 0 22.3 11.1 22.3 24.1h-45.4z" fill="#b7b7b7"/><path d="M231.3 259.6h23.1s3.3-.3 3.3 1c0 1.6-15 6.4-26.3 7.1-11.3-.7-26.3-5.5-26.3-7.1 0-1.3 3.3-1 3.3-1h22.9" fill="#b7b7b7"/><g fill="#b7b7b7"><path d="M208.3 253.2h3.2v3.2h-3.2z"/><g><path d="M214.7 253.2h3.2v3.2h-3.2z"/><path d="M221.2 253.2h3.2v3.2h-3.2z"/><path d="M227.6 253.2h3.2v3.2h-3.2z"/><path d="M234 253.2h3.2v3.2H234z"/><path d="M240.5 253.2h3.2v3.2h-3.2z"/><path d="M246.9 253.2h3.2v3.2h-3.2z"/><path d="M211.5 256.5h3.2v3.2h-3.2z"/><path d="M217.9 256.5h3.2v3.2h-3.2z"/><path d="M224.4 256.5h3.2v3.2h-3.2z"/><path d="M230.8 256.5h3.2v3.2h-3.2z"/><path d="M237.3 256.5h3.2v3.2h-3.2z"/><path d="M243.7 256.5h3.2v3.2h-3.2z"/><path d="M250.1 256.5h3.2v3.2h-3.2z"/></g></g><circle cx="231.7" cy="229.2" r="2" fill="#b7b7b7"/><g><path fill="#fff" d="M229.2 237.6h-3.6v3.6l-2.5 2.5 2.5 2.5v3.6h3.6l2.5 2.5 2.6-2.5h3.5v-3.6l2.6-2.5-2.6-2.5v-3.6h-3.5z"/><circle cx="231.7" cy="243.7" r="4" fill="#b7b7b7"/><circle cx="231.7" cy="243.7" r="2.6" fill="#fff"/><g><path stroke-miterlimit="10" d="M231.5 232.6s.1-.1.1-.3c0 0-.2 0-.4.2v-.8c.2.2.4.2.4.2s0-.2-.2-.4h.8c-.2.2-.2.4-.2.4s.2 0 .4-.2v.8c-.2-.2-.4-.2-.4-.2 0 .2.1.3.1.3" fill="#fff" stroke="#fff" stroke-width=".132"/><path stroke-miterlimit="10" d="M230.4 233.8c-.4-.2-.8-.4-1.4 0-.6.4-.4 1.2-.4 1.3l.3.8.3-.1-.3-.8v-.4c0-.3.1-.4.3-.5.4-.3.7-.1 1.1 0 .4.2.7.3 1.2.3v-.3c-.5-.1-.8-.2-1.1-.3z" fill="#fff" stroke="#fff" stroke-width=".132"/><circle stroke-miterlimit="10" cx="231.2" cy="233.8" r=".2" fill="#fff" stroke="#fff" stroke-width=".132"/><circle stroke-miterlimit="10" cx="230.6" cy="233.6" r=".2" fill="#fff" stroke="#fff" stroke-width=".132"/><circle stroke-miterlimit="10" cx="230" cy="233.4" r=".2" fill="#fff" stroke="#fff" stroke-width=".132"/><circle stroke-miterlimit="10" cx="229.4" cy="233.3" r=".2" fill="#fff" stroke="#fff" stroke-width=".132"/><circle stroke-miterlimit="10" cx="228.8" cy="233.5" r=".2" fill="#fff" stroke="#fff" stroke-width=".132"/><circle stroke-miterlimit="10" cx="228.4" cy="234" r=".2" fill="#fff" stroke="#fff" stroke-width=".132"/><circle stroke-miterlimit="10" cx="228.3" cy="234.6" r=".2" fill="#fff" stroke="#fff" stroke-width=".132"/><circle stroke-miterlimit="10" cx="228.4" cy="235.2" r=".2" fill="#fff" stroke="#fff" stroke-width=".132"/><circle stroke-miterlimit="10" cx="228.6" cy="235.7" r=".2" fill="#fff" stroke="#fff" stroke-width=".132"/><path stroke-miterlimit="10" d="M229.2 237.1l-.4-1.2.6-.2s-.3.3-.2.7c0 0 .2-.1.4-.4l.3.7c-.3-.1-.5 0-.5 0s.1.2.3.4" fill="#fff" stroke="#fff" stroke-width=".132"/><path stroke-miterlimit="10" d="M230.5 236.1c0-.1-.1-.2.1-.2s.1.3.2.3c0 .1.1.1.2-.1s0-.5-.2-.5-.4.2-.4.2.1-.7-.2-.8c-.3.3 0 .9 0 .9s-.2-.2-.4-.1-.1.4 0 .6c.1.2.2.1.2 0s-.1-.3.1-.4c.2 0 .2.1.2.1h.2z" fill="#fff" stroke="#fff" stroke-width=".132"/><path stroke-miterlimit="10" d="M230.3 236.4s-.1 0-.1-.1c0 0 0-.1.1-.1h.3s.1 0 .1.1c0 0 0 .1-.1.1h-.3z" fill="#fff" stroke="#fff" stroke-width=".132"/><path stroke-miterlimit="10" d="M233.1 233.8c.4-.2.8-.4 1.4 0 .6.4.4 1.2.4 1.3l-.3.8-.3-.1.3-.8v-.4c0-.3-.1-.4-.3-.5-.4-.3-.7-.1-1.1 0-.4.2-.7.3-1.2.3v-.3c.5-.1.8-.2 1.1-.3z" fill="#fff" stroke="#fff" stroke-width=".132"/><circle stroke-miterlimit="10" cx="232.3" cy="233.8" r=".2" fill="#fff" stroke="#fff" stroke-width=".132"/><circle stroke-miterlimit="10" cx="232.9" cy="233.6" r=".2" fill="#fff" stroke="#fff" stroke-width=".132"/><circle stroke-miterlimit="10" cx="233.4" cy="233.4" r=".2" fill="#fff" stroke="#fff" stroke-width=".132"/><circle stroke-miterlimit="10" cx="234.1" cy="233.3" r=".2" fill="#fff" stroke="#fff" stroke-width=".132"/><circle stroke-miterlimit="10" cx="234.6" cy="233.5" r=".2" fill="#fff" stroke="#fff" stroke-width=".132"/><circle stroke-miterlimit="10" cx="235.1" cy="234" r=".2" fill="#fff" stroke="#fff" stroke-width=".132"/><circle stroke-miterlimit="10" cx="235.2" cy="234.6" r=".2" fill="#fff" stroke="#fff" stroke-width=".132"/><circle stroke-miterlimit="10" cx="235.1" cy="235.2" r=".2" fill="#fff" stroke="#fff" stroke-width=".132"/><circle stroke-miterlimit="10" cx="234.9" cy="235.7" r=".2" fill="#fff" stroke="#fff" stroke-width=".132"/><path stroke-miterlimit="10" d="M234.3 237.1l.4-1.2-.6-.2s.3.3.2.7c0 0-.2-.1-.4-.4l-.3.7c.3-.1.5 0 .5 0s-.1.2-.3.4" fill="#fff" stroke="#fff" stroke-width=".132"/><path stroke-miterlimit="10" d="M234.4 236.6c-.2.3-.7.2-.7.2-.3 0-.4-.2-.4-.4h-.2s0 .1-.1.1c-.1.1-.3.2-.5.1-.3 0-.6-.2-.6-.5H231.6c0 .3-.3.5-.6.5-.2 0-.4-.1-.5-.1l-.1-.1h-.2c0 .2-.2.4-.4.4 0 0-.5.1-.7-.2h-.2c.2.3.5.3.7.3h.2c.3 0 .5-.2.6-.5v.1c.1.1.3.2.5.2.3 0 .6-.2.7-.5.1.3.4.5.7.5.2 0 .4-.1.5-.2v-.1c.1.3.3.4.6.5h.2c.2 0 .5-.1.7-.3h.1z" fill="#fff" stroke="#fff" stroke-width=".132"/><path stroke-miterlimit="10" d="M233 236.1c0-.1.1-.2-.1-.2s-.1.3-.2.3c0 .1-.1.1-.2-.1s0-.5.2-.5.4.2.4.2-.1-.7.2-.8c.3.3 0 .9 0 .9s.2-.2.4-.1.1.4 0 .6c-.1.2-.2.1-.2 0s.1-.3-.1-.4c-.2 0-.2.1-.2.1h-.2z" fill="#fff" stroke="#fff" stroke-width=".132"/><circle stroke-miterlimit="10" cx="234.5" cy="236.5" r=".2" fill="#fff" stroke="#fff" stroke-width=".132"/><path stroke-miterlimit="10" d="M233.2 236.4s.1 0 .1-.1c0 0 0-.1-.1-.1h-.3s-.1 0-.1.1c0 0 0 .1.1.1h.3z" fill="#fff" stroke="#fff" stroke-width=".132"/><path stroke-miterlimit="10" d="M231.7 236.7c1.8 0 2.6.4 2.6.5 0 0 .1.1 0 .1h-.1s-.8-.4-2.6-.4-2.6.4-2.6.4h-.1v-.1c.2 0 1-.5 2.8-.5" fill="#fff" stroke="#fff" stroke-width=".132"/><path stroke-miterlimit="10" d="M231.7 237.5c1.3 0 2.1.3 2.4.4l.1-.5s-.8-.4-2.6-.4-2.6.4-2.6.4l.1.5c.5-.2 1.3-.4 2.6-.4z" fill="#fff" stroke="#fff" stroke-width=".132"/><g><path stroke-miterlimit="10" d="M234 238.6h-.1c-.2-.1-.9-.3-2.1-.3-1.2 0-1.9.2-2.1.3-.2.1-.4 0-.5-.2-.1-.2 0-.4.2-.5.3-.1 1.1-.4 2.4-.4 1.4 0 2.1.3 2.4.4.2.1.3.3.2.5-.1.1-.2.2-.4.2z" fill="#fff" stroke="#fff" stroke-width=".132"/></g><path stroke-miterlimit="10" d="M231.9 236.1s.3 0 .5.2v-.8c-.2.3-.5.2-.5.2 0-.4.4-.6.4-.6h-1.2s.4.2.4.6c0 0-.3 0-.5-.2v.8c.2-.3.5-.2.5-.2" fill="#fff" stroke="#fff" stroke-width=".132"/><circle stroke-miterlimit="10" cx="231.7" cy="235.9" r=".2" fill="#fff" stroke="#fff" stroke-width=".132"/><path stroke-miterlimit="10" fill="#fff" stroke="#fff" stroke-width=".132" d="M231.4 233.8v1.4"/><path stroke-miterlimit="10" fill="#fff" stroke="#fff" stroke-width=".132" d="M232 233.8v1.4"/><circle stroke-miterlimit="10" cx="231.7" cy="235" r=".2" fill="#fff" stroke="#fff" stroke-width=".132"/><circle stroke-miterlimit="10" cx="231.7" cy="234.7" r=".2" fill="#fff" stroke="#fff" stroke-width=".132"/><circle stroke-miterlimit="10" cx="231.7" cy="234.3" r=".2" fill="#fff" stroke="#fff" stroke-width=".132"/><circle stroke-miterlimit="10" cx="231.7" cy="234" r=".2" fill="#fff" stroke="#fff" stroke-width=".132"/><path stroke-miterlimit="10" fill="#fff" stroke="#fff" stroke-width=".132" d="M231.2 233.5h1.1"/><g stroke-miterlimit="10" stroke="#fff" stroke-width=".132"><circle cx="231.8" cy="233.2" r=".6" fill="#fff"/><g fill="none"><path d="M232.4 233h-.4v-.4"/><path d="M231.1 233h.4v-.4"/></g><g fill="#fff"><circle cx="231.8" cy="232.6" r=".1"/><circle cx="231.8" cy="232.8" r=".1"/><circle cx="231.8" cy="232.9" r=".1"/><circle cx="231.8" cy="233.1" r=".1"/></g><g fill="#fff"><circle cx="231.1" cy="233.2" r=".1"/><circle cx="231.3" cy="233.2" r=".1"/><circle cx="231.5" cy="233.2" r=".1"/><circle cx="231.7" cy="233.2" r=".1"/><circle cx="231.9" cy="233.2" r=".1"/><circle cx="232" cy="233.2" r=".1"/><circle cx="232.2" cy="233.2" r=".1"/><circle cx="232.4" cy="233.2" r=".1"/></g></g><circle stroke-miterlimit="10" cx="231.8" cy="232.2" r=".2" fill="#fff" stroke="#fff" stroke-width=".132"/><path stroke-miterlimit="10" fill="#fff" stroke="#fff" stroke-width=".132" d="M231.4 237h.6v.3h-.6z"/><path stroke-miterlimit="10" fill="#fff" stroke="#fff" stroke-width=".132" d="M229.162 237.475l.48-.146.086.286-.48.146z"/><path stroke-miterlimit="10" fill="#fff" stroke="#fff" stroke-width=".132" d="M234.258 237.774l-.478-.145.087-.288.48.145z"/><ellipse transform="matrix(.989 -.148 .148 .989 -32.626 36.801)" stroke-miterlimit="10" cx="230.5" cy="237.2" rx=".3" ry=".1" fill="#fff" stroke="#fff" stroke-width=".132"/><ellipse transform="matrix(-.989 -.148 .148 -.989 427.968 506.389)" stroke-miterlimit="10" cx="232.9" cy="237.2" rx=".3" ry=".1" fill="#fff" stroke="#fff" stroke-width=".132"/></g></g></g></g><path fill="#b7b7b7" d="M140.1 286.8l-27.5 18.5-13.3 50.3h126.2l-14.3-50.3-27.5-18.5-21.8 32.7z"/><g><g><g><g><path stroke-miterlimit="10" d="M161.9 291.5" fill="none" stroke="#b7b7b7" stroke-width="2.927" stroke-linecap="round" stroke-linejoin="round"/></g></g></g><path fill="#b7b7b7" d="M173.5 319.4l-8.7-23.9 5.5-8.8h-17.5l5.5 8.8-8.1 23.9z"/><g fill="#fff"><path d="M178.1 305.9h4.7v4.7h-4.7z"/><g><path d="M187.8 305.9h4.7v4.7h-4.7z"/><path d="M182.7 310.6h4.7v4.7h-4.7z"/><path d="M192.5 310.6h4.7v4.7h-4.7z"/></g></g><path d="M152.8 330.3l-1.8-12.9c-.3-2.3-2.4-3.9-4.7-3.5l-6.6.9-.7-5-1 .1-2.2-15.6-1.4.2 2.2 15.6-.8.1.7 5c-2.2.4-3.8 2.4-3.5 4.7l1.8 12.9c.3 2.3 2.4 3.9 4.7 3.5l9.7-1.4c2.3-.2 3.9-2.3 3.6-4.6z" fill="#fff"/><path d="M161.9 308.6" fill="#fff"/></g><g><path d="M179.2 253.7c0 9.6-7.8 17.4-17.4 17.4-9.6 0-17.4-7.8-17.4-17.4h34.8z" fill="#b7b7b7"/><g transform="translate(17.6 -13.3)"><path d="M144.3 261.7h23.1s3.3-.3 3.3 1c0 1.6-15 6.4-26.3 7.1-11.3-.7-26.3-5.5-26.3-7.1 0-1.3 3.3-1 3.3-1h22.9" fill="#fff"/><path d="M121.2 253.3c0-13 10.6-24.1 23.1-24.1 12.5 0 22.3 11.1 22.3 24.1h-45.4z" fill="#b7b7b7"/><path d="M144.3 259.6h23.1s3.3-.3 3.3 1c0 1.6-15 6.4-26.3 7.1-11.3-.7-26.3-5.5-26.3-7.1 0-1.3 3.3-1 3.3-1h22.9" fill="#b7b7b7"/><g fill="#b7b7b7"><path d="M121.2 253.2h3.2v3.2h-3.2z"/><g><path d="M127.7 253.2h3.2v3.2h-3.2z"/><path d="M134.1 253.2h3.2v3.2h-3.2z"/><path d="M140.5 253.2h3.2v3.2h-3.2z"/><path d="M147 253.2h3.2v3.2H147z"/><path d="M153.4 253.2h3.2v3.2h-3.2z"/><path d="M159.8 253.2h3.2v3.2h-3.2z"/><path d="M124.4 256.5h3.2v3.2h-3.2z"/><path d="M130.9 256.5h3.2v3.2h-3.2z"/><path d="M137.3 256.5h3.2v3.2h-3.2z"/><path d="M143.8 256.5h3.2v3.2h-3.2z"/><path d="M150.2 256.5h3.2v3.2h-3.2z"/><path d="M156.6 256.5h3.2v3.2h-3.2z"/><path d="M163.1 256.5h3.2v3.2h-3.2z"/></g></g><circle cx="144.7" cy="229.2" r="2" fill="#b7b7b7"/><g><path fill="#fff" d="M142.2 237.6h-3.6v3.6l-2.5 2.5 2.5 2.5v3.6h3.6l2.5 2.5 2.5-2.5h3.6v-3.6l2.5-2.5-2.5-2.5v-3.6h-3.6z"/><circle cx="144.7" cy="243.7" r="4" fill="#b7b7b7"/><circle cx="144.7" cy="243.7" r="2.6" fill="#fff"/><g><path stroke-miterlimit="10" d="M144.4 232.6s.1-.1.1-.3c0 0-.2 0-.4.2v-.8c.2.2.4.2.4.2s0-.2-.2-.4h.8c-.2.2-.2.4-.2.4s.2 0 .4-.2v.8c-.2-.2-.4-.2-.4-.2 0 .2.1.3.1.3" fill="#fff" stroke="#fff" stroke-width=".132"/><path stroke-miterlimit="10" d="M143.3 233.8c-.4-.2-.8-.4-1.4 0-.6.4-.4 1.2-.4 1.3l.3.8.3-.1-.3-.8v-.4c0-.3.1-.4.3-.5.4-.3.7-.1 1.1 0 .4.2.7.3 1.2.3v-.3c-.5-.1-.7-.2-1.1-.3z" fill="#fff" stroke="#fff" stroke-width=".132"/><circle stroke-miterlimit="10" cx="144.1" cy="233.8" r=".2" fill="#fff" stroke="#fff" stroke-width=".132"/><circle stroke-miterlimit="10" cx="143.6" cy="233.6" r=".2" fill="#fff" stroke="#fff" stroke-width=".132"/><circle stroke-miterlimit="10" cx="143" cy="233.4" r=".2" fill="#fff" stroke="#fff" stroke-width=".132"/><circle stroke-miterlimit="10" cx="142.4" cy="233.3" r=".2" fill="#fff" stroke="#fff" stroke-width=".132"/><circle stroke-miterlimit="10" cx="141.8" cy="233.5" r=".2" fill="#fff" stroke="#fff" stroke-width=".132"/><circle stroke-miterlimit="10" cx="141.4" cy="234" r=".2" fill="#fff" stroke="#fff" stroke-width=".132"/><circle stroke-miterlimit="10" cx="141.2" cy="234.6" r=".2" fill="#fff" stroke="#fff" stroke-width=".132"/><circle stroke-miterlimit="10" cx="141.3" cy="235.2" r=".2" fill="#fff" stroke="#fff" stroke-width=".132"/><circle stroke-miterlimit="10" cx="141.5" cy="235.7" r=".2" fill="#fff" stroke="#fff" stroke-width=".132"/><path stroke-miterlimit="10" d="M142.1 237.1l-.4-1.2.6-.2s-.3.3-.2.7c0 0 .2-.1.4-.4l.3.7c-.3-.1-.5 0-.5 0s.1.2.3.4" fill="#fff" stroke="#fff" stroke-width=".132"/><path stroke-miterlimit="10" d="M143.4 236.1c0-.1-.1-.2.1-.2s.1.3.2.3c0 .1.1.1.2-.1s0-.5-.2-.5-.4.2-.4.2.1-.7-.2-.8c-.3.3 0 .9 0 .9s-.2-.2-.4-.1-.1.4 0 .6c.1.2.2.1.2 0s-.1-.3.1-.4c.2 0 .2.1.2.1h.2z" fill="#fff" stroke="#fff" stroke-width=".132"/><path stroke-miterlimit="10" d="M143.2 236.4s-.1 0-.1-.1c0 0 0-.1.1-.1h.3s.1 0 .1.1c0 0 0 .1-.1.1h-.3z" fill="#fff" stroke="#fff" stroke-width=".132"/><path stroke-miterlimit="10" d="M146 233.8c.4-.2.8-.4 1.4 0 .6.4.4 1.2.4 1.3l-.3.8-.3-.1.3-.8v-.4c0-.3-.1-.4-.3-.5-.4-.3-.7-.1-1.1 0-.4.2-.7.3-1.2.3v-.3c.6-.1.8-.2 1.1-.3z" fill="#fff" stroke="#fff" stroke-width=".132"/><circle stroke-miterlimit="10" cx="145.2" cy="233.8" r=".2" fill="#fff" stroke="#fff" stroke-width=".132"/><circle stroke-miterlimit="10" cx="145.8" cy="233.6" r=".2" fill="#fff" stroke="#fff" stroke-width=".132"/><circle stroke-miterlimit="10" cx="146.4" cy="233.4" r=".2" fill="#fff" stroke="#fff" stroke-width=".132"/><circle stroke-miterlimit="10" cx="147" cy="233.3" r=".2" fill="#fff" stroke="#fff" stroke-width=".132"/><circle stroke-miterlimit="10" cx="147.6" cy="233.5" r=".2" fill="#fff" stroke="#fff" stroke-width=".132"/><circle stroke-miterlimit="10" cx="148" cy="234" r=".2" fill="#fff" stroke="#fff" stroke-width=".132"/><circle stroke-miterlimit="10" cx="148.1" cy="234.6" r=".2" fill="#fff" stroke="#fff" stroke-width=".132"/><circle stroke-miterlimit="10" cx="148" cy="235.2" r=".2" fill="#fff" stroke="#fff" stroke-width=".132"/><circle stroke-miterlimit="10" cx="147.8" cy="235.7" r=".2" fill="#fff" stroke="#fff" stroke-width=".132"/><path stroke-miterlimit="10" d="M147.3 237.1l.4-1.2-.6-.2s.3.3.2.7c0 0-.2-.1-.4-.4l-.3.7c.3-.1.5 0 .5 0s-.1.2-.3.4" fill="#fff" stroke="#fff" stroke-width=".132"/><path stroke-miterlimit="10" d="M147.3 236.6c-.2.3-.7.2-.7.2-.3 0-.4-.2-.4-.4h-.2s0 .1-.1.1c-.1.1-.3.2-.5.1-.3 0-.6-.2-.6-.5H144.5c0 .3-.3.5-.6.5-.2 0-.4-.1-.5-.1l-.1-.1h-.2c0 .2-.2.4-.4.4 0 0-.5.1-.7-.2h-.2c.2.3.5.3.7.3h.2c.3 0 .5-.2.6-.5v.1c.1.1.3.2.5.2.3 0 .6-.2.7-.5.1.3.4.5.7.5.2 0 .4-.1.5-.2v-.1c.1.3.3.4.6.5h.2c.2 0 .5-.1.7-.3h.1z" fill="#fff" stroke="#fff" stroke-width=".132"/><path stroke-miterlimit="10" d="M145.9 236.1c0-.1.1-.2-.1-.2s-.1.3-.2.3c0 .1-.1.1-.2-.1s0-.5.2-.5.4.2.4.2-.1-.7.2-.8c.3.3 0 .9 0 .9s.2-.2.4-.1.1.4 0 .6c-.1.2-.2.1-.2 0s.1-.3-.1-.4c-.2 0-.2.1-.2.1h-.2z" fill="#fff" stroke="#fff" stroke-width=".132"/><circle stroke-miterlimit="10" cx="147.4" cy="236.5" r=".2" fill="#fff" stroke="#fff" stroke-width=".132"/><path stroke-miterlimit="10" d="M146.2 236.4s.1 0 .1-.1c0 0 0-.1-.1-.1h-.3s-.1 0-.1.1c0 0 0 .1.1.1h.3z" fill="#fff" stroke="#fff" stroke-width=".132"/><path stroke-miterlimit="10" d="M144.7 236.7c1.8 0 2.6.4 2.6.5 0 0 .1.1 0 .1h-.1s-.8-.4-2.6-.4-2.6.4-2.6.4h-.1v-.1c.2 0 1-.5 2.8-.5" fill="#fff" stroke="#fff" stroke-width=".132"/><path stroke-miterlimit="10" d="M144.7 237.5c1.3 0 2.1.3 2.4.4l.1-.5s-.8-.4-2.6-.4-2.6.4-2.6.4l.1.5c.5-.2 1.2-.4 2.6-.4z" fill="#fff" stroke="#fff" stroke-width=".132"/><g><path stroke-miterlimit="10" d="M147 238.6h-.1c-.2-.1-.9-.3-2.1-.3-1.2 0-1.9.2-2.1.3-.2.1-.4 0-.5-.2-.1-.2 0-.4.2-.5.3-.1 1.1-.4 2.4-.4 1.4 0 2.1.3 2.4.4.2.1.3.3.2.5-.2.1-.3.2-.4.2z" fill="#fff" stroke="#fff" stroke-width=".132"/></g><path stroke-miterlimit="10" d="M144.8 236.1s.3 0 .5.2v-.8c-.2.3-.5.2-.5.2 0-.4.4-.6.4-.6H144s.4.2.4.6c0 0-.3 0-.5-.2v.8c.2-.3.5-.2.5-.2" fill="#fff" stroke="#fff" stroke-width=".132"/><circle stroke-miterlimit="10" cx="144.7" cy="235.9" r=".2" fill="#fff" stroke="#fff" stroke-width=".132"/><path stroke-miterlimit="10" fill="#fff" stroke="#fff" stroke-width=".132" d="M144.4 233.8v1.4"/><path stroke-miterlimit="10" fill="#fff" stroke="#fff" stroke-width=".132" d="M145 233.8v1.4"/><circle stroke-miterlimit="10" cx="144.7" cy="235" r=".2" fill="#fff" stroke="#fff" stroke-width=".132"/><circle stroke-miterlimit="10" cx="144.7" cy="234.7" r=".2" fill="#fff" stroke="#fff" stroke-width=".132"/><circle stroke-miterlimit="10" cx="144.7" cy="234.3" r=".2" fill="#fff" stroke="#fff" stroke-width=".132"/><circle stroke-miterlimit="10" cx="144.7" cy="234" r=".2" fill="#fff" stroke="#fff" stroke-width=".132"/><path stroke-miterlimit="10" fill="#fff" stroke="#fff" stroke-width=".132" d="M144.1 233.5h1.2"/><g stroke-miterlimit="10" stroke="#fff" stroke-width=".132"><circle cx="144.7" cy="233.2" r=".6" fill="#fff"/><g fill="none"><path d="M145.3 233h-.4v-.4"/><path d="M144.1 233h.4v-.4"/></g><g fill="#fff"><circle cx="144.7" cy="232.6" r=".1"/><circle cx="144.7" cy="232.8" r=".1"/><circle cx="144.7" cy="232.9" r=".1"/><circle cx="144.7" cy="233.1" r=".1"/></g><g fill="#fff"><circle cx="144.1" cy="233.2" r=".1"/><circle cx="144.2" cy="233.2" r=".1"/><circle cx="144.4" cy="233.2" r=".1"/><circle cx="144.6" cy="233.2" r=".1"/><circle cx="144.8" cy="233.2" r=".1"/><circle cx="145" cy="233.2" r=".1"/><circle cx="145.2" cy="233.2" r=".1"/><circle cx="145.3" cy="233.2" r=".1"/></g></g><circle stroke-miterlimit="10" cx="144.7" cy="232.2" r=".2" fill="#fff" stroke="#fff" stroke-width=".132"/><path stroke-miterlimit="10" fill="#fff" stroke="#fff" stroke-width=".132" d="M144.3 237h.6v.3h-.6z"/><path stroke-miterlimit="10" fill="#fff" stroke="#fff" stroke-width=".132" d="M142.064 237.483l.478-.145.087.287-.48.145z"/><path stroke-miterlimit="10" fill="#fff" stroke="#fff" stroke-width=".132" d="M147.136 237.754l-.478-.145.087-.288.48.145z"/><ellipse transform="matrix(.989 -.148 .148 .989 -33.588 23.892)" stroke-miterlimit="10" cx="143.5" cy="237.2" rx=".3" ry=".1" fill="#fff" stroke="#fff" stroke-width=".132"/><ellipse transform="matrix(-.989 -.148 .148 -.989 254.805 493.478)" stroke-miterlimit="10" cx="145.8" cy="237.2" rx=".3" ry=".1" fill="#fff" stroke="#fff" stroke-width=".132"/></g></g></g></g></g><path fill="#b72266" d="M314.2 286.8l-27.5 18.5-13.2 50.3h126.1l-14.3-50.3-27.5-18.5-21.8 32.7z"/><g><g><g><g><path stroke-miterlimit="10" d="M336 291.5" fill="none" stroke="#b72266" stroke-width="2.927" stroke-linecap="round" stroke-linejoin="round"/></g></g></g><path fill="#b72266" d="M347.7 319.4l-8.8-23.9 5.6-8.8h-17.6l5.6 8.8-8.1 23.9z"/><g fill="#fff"><path d="M352.2 305.9h4.7v4.7h-4.7z"/><g><path d="M361.9 305.9h4.7v4.7h-4.7z"/><path d="M356.9 310.6h4.7v4.7h-4.7z"/><path d="M366.6 310.6h4.7v4.7h-4.7z"/></g></g><path d="M326.9 330.3l-1.8-12.9c-.3-2.3-2.4-3.9-4.7-3.5l-6.6.9-.7-5-1 .1-2.2-15.6-1.4.2 2.2 15.6-.8.1.7 5c-2.2.4-3.8 2.4-3.5 4.7l1.8 12.9c.3 2.3 2.4 3.9 4.7 3.5l9.7-1.4c2.3-.2 3.9-2.3 3.6-4.6z" fill="#fff"/><path d="M336 308.6" fill="#fff"/></g><g><path d="M353.3 253.7c0 9.6-7.8 17.4-17.4 17.4-9.6 0-17.4-7.8-17.4-17.4h34.8z" fill="#b72266"/><g transform="translate(17.6 -13.3)"><path d="M318.4 261.7h23.1s3.3-.3 3.3 1c0 1.6-15 6.4-26.3 7.1-11.3-.7-26.3-5.5-26.3-7.1 0-1.3 3.3-1 3.3-1h22.9" fill="#fff"/><path d="M295.3 253.3c0-13 10.6-24.1 23.1-24.1 12.5 0 22.3 11.1 22.3 24.1h-45.4z" fill="#b72266"/><path d="M318.4 259.6h23.1s3.3-.3 3.3 1c0 1.6-15 6.4-26.3 7.1-11.3-.7-26.3-5.5-26.3-7.1 0-1.3 3.3-1 3.3-1h22.9" fill="#b72266"/><g fill="#b72266"><path d="M295.3 253.2h3.2v3.2h-3.2z"/><g><path d="M301.8 253.2h3.2v3.2h-3.2z"/><path d="M308.2 253.2h3.2v3.2h-3.2z"/><path d="M314.7 253.2h3.2v3.2h-3.2z"/><path d="M321.1 253.2h3.2v3.2h-3.2z"/><path d="M327.5 253.2h3.2v3.2h-3.2z"/><path d="M334 253.2h3.2v3.2H334z"/><path d="M298.6 256.5h3.2v3.2h-3.2z"/><path d="M305 256.5h3.2v3.2H305z"/><path d="M311.4 256.5h3.2v3.2h-3.2z"/><path d="M317.9 256.5h3.2v3.2h-3.2z"/><path d="M324.3 256.5h3.2v3.2h-3.2z"/><path d="M330.8 256.5h3.2v3.2h-3.2z"/><path d="M337.2 256.5h3.2v3.2h-3.2z"/></g></g><circle cx="318.8" cy="229.2" r="2" fill="#b72266"/><g><path fill="#fff" d="M316.3 237.6h-3.6v3.6l-2.5 2.5 2.5 2.5v3.6h3.6l2.5 2.5 2.5-2.5h3.6v-3.6l2.5-2.5-2.5-2.5v-3.6h-3.6z"/><circle cx="318.8" cy="243.7" r="4" fill="#b72266"/><circle cx="318.8" cy="243.7" r="2.6" fill="#fff"/><g><path stroke-miterlimit="10" d="M318.5 232.6s.1-.1.1-.3c0 0-.2 0-.4.2v-.8c.2.2.4.2.4.2s0-.2-.2-.4h.8c-.2.2-.2.4-.2.4s.2 0 .4-.2v.8c-.2-.2-.4-.2-.4-.2 0 .2.1.3.1.3" fill="#fff" stroke="#fff" stroke-width=".132"/><path stroke-miterlimit="10" d="M317.4 233.8c-.4-.2-.8-.4-1.4 0-.6.4-.4 1.2-.4 1.3l.3.8.3-.1-.3-.8v-.4c0-.3.1-.4.3-.5.4-.3.7-.1 1.1 0 .4.2.7.3 1.2.3v-.3c-.5-.1-.7-.2-1.1-.3z" fill="#fff" stroke="#fff" stroke-width=".132"/><circle stroke-miterlimit="10" cx="318.2" cy="233.8" r=".2" fill="#fff" stroke="#fff" stroke-width=".132"/><circle stroke-miterlimit="10" cx="317.7" cy="233.6" r=".2" fill="#fff" stroke="#fff" stroke-width=".132"/><circle stroke-miterlimit="10" cx="317.1" cy="233.4" r=".2" fill="#fff" stroke="#fff" stroke-width=".132"/><circle stroke-miterlimit="10" cx="316.5" cy="233.3" r=".2" fill="#fff" stroke="#fff" stroke-width=".132"/><circle stroke-miterlimit="10" cx="315.9" cy="233.5" r=".2" fill="#fff" stroke="#fff" stroke-width=".132"/><circle stroke-miterlimit="10" cx="315.5" cy="234" r=".2" fill="#fff" stroke="#fff" stroke-width=".132"/><circle stroke-miterlimit="10" cx="315.4" cy="234.6" r=".2" fill="#fff" stroke="#fff" stroke-width=".132"/><circle stroke-miterlimit="10" cx="315.5" cy="235.2" r=".2" fill="#fff" stroke="#fff" stroke-width=".132"/><circle stroke-miterlimit="10" cx="315.7" cy="235.7" r=".2" fill="#fff" stroke="#fff" stroke-width=".132"/><path stroke-miterlimit="10" d="M316.2 237.1l-.4-1.2.6-.2s-.3.3-.2.7c0 0 .2-.1.4-.4l.3.7c-.3-.1-.5 0-.5 0s.1.2.3.4" fill="#fff" stroke="#fff" stroke-width=".132"/><path stroke-miterlimit="10" d="M317.6 236.1c0-.1-.1-.2.1-.2s.1.3.2.3c0 .1.1.1.2-.1s0-.5-.2-.5-.4.2-.4.2.1-.7-.2-.8c-.3.3 0 .9 0 .9s-.2-.2-.4-.1-.1.4 0 .6c.1.2.2.1.2 0s-.1-.3.1-.4c.2 0 .2.1.2.1h.2z" fill="#fff" stroke="#fff" stroke-width=".132"/><path stroke-miterlimit="10" d="M317.3 236.4s-.1 0-.1-.1c0 0 0-.1.1-.1h.3s.1 0 .1.1c0 0 0 .1-.1.1h-.3z" fill="#fff" stroke="#fff" stroke-width=".132"/><path stroke-miterlimit="10" d="M320.2 233.8c.4-.2.8-.4 1.4 0 .6.4.4 1.2.4 1.3l-.3.8-.3-.1.3-.8v-.4c0-.3-.1-.4-.3-.5-.4-.3-.7-.1-1.1 0-.4.2-.7.3-1.2.3v-.3c.5-.1.7-.2 1.1-.3z" fill="#b72366" stroke="#fff" stroke-width=".132"/><circle stroke-miterlimit="10" cx="319.4" cy="233.8" r=".2" fill="#fff" stroke="#fff" stroke-width=".132"/><circle stroke-miterlimit="10" cx="319.9" cy="233.6" r=".2" fill="#fff" stroke="#fff" stroke-width=".132"/><circle stroke-miterlimit="10" cx="320.5" cy="233.4" r=".2" fill="#fff" stroke="#fff" stroke-width=".132"/><circle stroke-miterlimit="10" cx="321.1" cy="233.3" r=".2" fill="#fff" stroke="#fff" stroke-width=".132"/><circle stroke-miterlimit="10" cx="321.7" cy="233.5" r=".2" fill="#fff" stroke="#fff" stroke-width=".132"/><circle stroke-miterlimit="10" cx="322.1" cy="234" r=".2" fill="#fff" stroke="#fff" stroke-width=".132"/><circle stroke-miterlimit="10" cx="322.2" cy="234.6" r=".2" fill="#fff" stroke="#fff" stroke-width=".132"/><circle stroke-miterlimit="10" cx="322.1" cy="235.2" r=".2" fill="#fff" stroke="#fff" stroke-width=".132"/><circle stroke-miterlimit="10" cx="322" cy="235.7" r=".2" fill="#fff" stroke="#fff" stroke-width=".132"/><path stroke-miterlimit="10" d="M321.4 237.1l.4-1.2-.6-.2s.3.3.2.7c0 0-.2-.1-.4-.4l-.3.7c.3-.1.5 0 .5 0s-.1.2-.3.4" fill="#fff" stroke="#fff" stroke-width=".132"/><path stroke-miterlimit="10" d="M321.5 236.6c-.2.3-.7.2-.7.2-.3 0-.4-.2-.4-.4h-.2s0 .1-.1.1c-.1.1-.3.2-.5.1-.3 0-.6-.2-.6-.5H318.7c0 .3-.3.5-.6.5-.2 0-.4-.1-.5-.1l-.1-.1h-.2c0 .2-.2.4-.4.4 0 0-.5.1-.7-.2h-.2c.2.3.5.3.7.3h.2c.3 0 .5-.2.6-.5v.1c.1.1.3.2.5.2.3 0 .6-.2.7-.5.1.3.4.5.7.5.2 0 .4-.1.5-.2v-.1c.1.3.3.4.6.5h.2c.2 0 .5-.1.7-.3h.1z" fill="#fff" stroke="#fff" stroke-width=".132"/><path stroke-miterlimit="10" d="M320.1 236.1c0-.1.1-.2-.1-.2s-.1.3-.2.3c0 .1-.1.1-.2-.1s0-.5.2-.5.4.2.4.2-.1-.7.2-.8c.3.3 0 .9 0 .9s.2-.2.4-.1.1.4 0 .6c-.1.2-.2.1-.2 0s.1-.3-.1-.4c-.2 0-.2.1-.2.1h-.2z" fill="#fff" stroke="#fff" stroke-width=".132"/><circle stroke-miterlimit="10" cx="321.5" cy="236.5" r=".2" fill="#fff" stroke="#fff" stroke-width=".132"/><path stroke-miterlimit="10" d="M320.3 236.4s.1 0 .1-.1c0 0 0-.1-.1-.1h-.3s-.1 0-.1.1c0 0 0 .1.1.1h.3z" fill="#fff" stroke="#fff" stroke-width=".132"/><path stroke-miterlimit="10" d="M318.8 236.7c1.8 0 2.6.4 2.6.5 0 0 .1.1 0 .1h-.1s-.8-.4-2.6-.4-2.6.4-2.6.4h-.1v-.1c.2 0 1-.5 2.8-.5" fill="#fff" stroke="#fff" stroke-width=".132"/><path stroke-miterlimit="10" d="M318.8 237.5c1.3 0 2.1.3 2.4.4l.1-.5s-.8-.4-2.6-.4-2.6.4-2.6.4l.1.5c.5-.2 1.3-.4 2.6-.4z" fill="#fff" stroke="#fff" stroke-width=".132"/><g><path stroke-miterlimit="10" d="M321.1 238.6h-.1c-.2-.1-.9-.3-2.1-.3-1.2 0-1.9.2-2.1.3-.2.1-.4 0-.5-.2-.1-.2 0-.4.2-.5.3-.1 1.1-.4 2.4-.4 1.4 0 2.1.3 2.4.4.2.1.3.3.2.5-.1.1-.3.2-.4.2z" fill="#fff" stroke="#fff" stroke-width=".132"/></g><path stroke-miterlimit="10" d="M319 236.1s.3 0 .5.2v-.8c-.2.3-.5.2-.5.2 0-.4.4-.6.4-.6h-1.2s.4.2.4.6c0 0-.3 0-.5-.2v.8c.2-.3.5-.2.5-.2" fill="#fff" stroke="#fff" stroke-width=".132"/><circle stroke-miterlimit="10" cx="318.8" cy="235.9" r=".2" fill="#fff" stroke="#fff" stroke-width=".132"/><path stroke-miterlimit="10" fill="#fff" stroke="#fff" stroke-width=".132" d="M318.5 233.8v1.4"/><path stroke-miterlimit="10" fill="#fff" stroke="#fff" stroke-width=".132" d="M319.1 233.8v1.4"/><circle stroke-miterlimit="10" cx="318.8" cy="235" r=".2" fill="#fff" stroke="#fff" stroke-width=".132"/><circle stroke-miterlimit="10" cx="318.8" cy="234.7" r=".2" fill="#fff" stroke="#fff" stroke-width=".132"/><circle stroke-miterlimit="10" cx="318.8" cy="234.3" r=".2" fill="#fff" stroke="#fff" stroke-width=".132"/><circle stroke-miterlimit="10" cx="318.8" cy="234" r=".2" fill="#fff" stroke="#fff" stroke-width=".132"/><path stroke-miterlimit="10" fill="#fff" stroke="#fff" stroke-width=".132" d="M318.2 233.5h1.2"/><g stroke-miterlimit="10" stroke="#fff" stroke-width=".132"><circle cx="318.8" cy="233.2" r=".6" fill="#fff"/><g fill="none"><path d="M319.4 233h-.3v-.4"/><path d="M318.2 233h.4v-.4"/></g><g fill="#fff"><circle cx="318.8" cy="232.6" r=".1"/><circle cx="318.8" cy="232.8" r=".1"/><circle cx="318.8" cy="232.9" r=".1"/><circle cx="318.8" cy="233.1" r=".1"/></g><g fill="#fff"><circle cx="318.2" cy="233.2" r=".1"/><circle cx="318.4" cy="233.2" r=".1"/><circle cx="318.6" cy="233.2" r=".1"/><circle cx="318.7" cy="233.2" r=".1"/><circle cx="318.9" cy="233.2" r=".1"/><circle cx="319.1" cy="233.2" r=".1"/><circle cx="319.3" cy="233.2" r=".1"/><circle cx="319.5" cy="233.2" r=".1"/></g></g><circle stroke-miterlimit="10" cx="318.8" cy="232.2" r=".2" fill="#fff" stroke="#fff" stroke-width=".132"/><path stroke-miterlimit="10" fill="#fff" stroke="#fff" stroke-width=".132" d="M318.5 237h.6v.3h-.6z"/><path stroke-miterlimit="10" fill="#fff" stroke="#fff" stroke-width=".132" d="M316.165 237.495l.48-.145.086.287-.478.145z"/><path stroke-miterlimit="10" fill="#fff" stroke="#fff" stroke-width=".132" d="M321.285 237.765l-.48-.145.088-.287.48.145z"/><ellipse transform="matrix(.989 -.148 .148 .989 -31.664 49.709)" stroke-miterlimit="10" cx="317.6" cy="237.2" rx=".3" ry=".1" fill="#fff" stroke="#fff" stroke-width=".132"/><ellipse transform="matrix(-.989 -.148 .148 -.989 601.13 519.299)" stroke-miterlimit="10" cx="319.9" cy="237.2" rx=".3" ry=".1" fill="#fff" stroke="#fff" stroke-width=".132"/></g></g></g></g></svg>