<?xml version="1.0" encoding="utf-8"?>
<!-- Generator: Adobe Illustrator 17.1.0, SVG Export Plug-In . SVG Version: 6.00 Build 0)  -->
<!DOCTYPE svg PUBLIC "-//W3C//DTD SVG 1.1//EN" "http://www.w3.org/Graphics/SVG/1.1/DTD/svg11.dtd">
<svg version="1.1" id="Layer_1" xmlns="http://www.w3.org/2000/svg" xmlns:xlink="http://www.w3.org/1999/xlink" x="0px" y="0px"
	 viewBox="1285 224 146 169" enable-background="new 1285 224 146 169" xml:space="preserve">
<g>
	<g transform="matrix(0.999751,0,0,0.999751,661.253,354.242)">
		<path vector-effect="none" fill="#F1F1F1" stroke="#DFDFDF" stroke-linecap="square" stroke-linejoin="bevel" d="M715.7-91.5
			l-2.4,1.9l-4.2-0.6l-4.1,1l-3.4-1.7l-3.3,2.3l-3.5-0.1l-2-3.6l-0.1-5.1l-3.8-0.8l-0.1-4.9l1.4-0.7l-3.1-3.9l3-4.2l4.5-2.9
			l-2.1-4.7l2.8-2.5l0.3,0.1l0.1-0.2l0-0.1l0-0.2l0.2-0.1l0.5,0.1l0.6-0.4l2.7,3.5l2.1,0.8l1.5,3l1,8.6l2.5,4.9l1,5.2l2.1,3.2
			L715.7-91.5"/>
		<path vector-effect="none" fill="#F1F1F1" stroke="#DFDFDF" stroke-linecap="square" stroke-linejoin="bevel" d="M694.9-88.7
			L692-86l0.6,2.7l-3.6,2.5l1.3,2.7l3.7,1.7l2.8,4l-2,2.8l1.7,1l2.4,3.8l-1.7,4.2l0.5,4.3l-6.2,4.2l-1.5,2.3l-4-0.6l-1.7-0.4
			l-1.3-4.8l0,0l-2.4-1.9l0,0l-0.1,0l-0.1-0.1l-0.1-0.1l0,0l0,0l0,0l0,0l0,0l-0.1-0.1l-1.5-2.9l2.5-1.7l-0.8-3.5l2.5-3.9l-1.8-1.6
			l0.2-3.5l3-1.2l-0.1-5.5l-5.7,1.5l-2.7-5.9l-3.1-4.6l1-3.3l4.5-7.6l3.5-1.3l5.5-5l3.1,3.9l-1.4,0.7l0.1,4.9l3.8,0.8l0.1,5.1
			L694.9-88.7"/>
		<path vector-effect="none" fill="#F1F1F1" stroke="#DFDFDF" stroke-linecap="square" stroke-linejoin="bevel" d="M728.8-64.9
			l-1.9,1.5l-2.9-3.6l-2.7,3.6l-2.4,0.5l-1.7-1.6l-0.1-1.3l0.5-1.8l0.4-0.8l-0.1-0.6l1.2-0.5l1.1,0.9l3.9-1L728.8-64.9"/>
		<path vector-effect="none" fill="#F1F1F1" stroke="#DFDFDF" stroke-linecap="square" stroke-linejoin="bevel" d="M716.2-62.8
			l-4.5,0.8l-2.6,3.3l-2.1-0.9l-3.2,0.7l-2.3-3.9l-2.6-2l-2.4-3.8l-1.7-1l2-2.8l-2.8-4l-3.7-1.7l-1.3-2.7l3.6-2.5L692-86l2.9-2.8
			l3.5,0.1l3.3-2.3l3.4,1.7l4.1-1l4.2,0.6l2.4-1.9l3.1,1.8l3,5.4l3.6,4.6l-0.6,2.3l1.5,3.7l3.8,5.1l-3.4,0.8l-2.7-2.7l-4.3,0.9
			l-1-0.5l-1.3,0.7l0.2,0.8l-0.4,0.8l-0.5,1.8L716.2-62.8"/>
		<path vector-effect="none" fill="#F1F1F1" stroke="#DFDFDF" stroke-linecap="square" stroke-linejoin="bevel" d="M728.8-64.9
			l2.6,1.6l2.6,5.6l-0.2,3.9l-3.9,4.7l2.5,2.4l-0.6,2.2l-3.1,2.1l-6.7,0.4l1.9,4.8l-2.4,2.8l-0.4,2.5l-2.1,2l-4.4,3.1l-5.3,1.7
			l-0.9-4l2.5-5l-2.2-3.4l-3.4-2l-0.5-2.5l-2.3-1.9l0.9-2.9l-3.4-1.7l1.5-2l-1.1-4.5l-2.4-1.1l-0.5-4.3l1.7-4.2l2.6,2l2.3,3.9
			l3.2-0.7l2.1,0.9l2.6-3.3l4.5-0.8l0.9-1.7l1.7,1.6l2.4-0.5l2.7-3.6l2.9,3.6L728.8-64.9"/>
		<path vector-effect="none" fill="#F1F1F1" stroke="#DFDFDF" stroke-linecap="square" stroke-linejoin="bevel" d="M708.2-29.2
			l-2.4,2l-0.8,2.6l-2.2,0.1l-1.6-3.2l-4.5,2.7l-3.2,1.1l-3.6-1.5l0.5,3.2l-3.4,2l-3.6-2.8l-2,0.2l-2-4.1l1.5-6.9l-3-2.3l3.2-1.9
			l0.4-6.8l-2.3-0.8l1-3.5l4-0.2l1.8-1.1l4,0.6l1.5-2.3l6.2-4.2l2.4,1.1l1.1,4.5l-1.5,2l3.4,1.7l-0.9,2.9l2.3,1.9l0.5,2.5l3.4,2
			l2.2,3.4L708.2-29.2"/>
		<path vector-effect="none" fill="#F1F1F1" stroke="#DFDFDF" stroke-linecap="square" stroke-linejoin="bevel" d="M733.4-12.1
			l0.1-3.7l-2.6,0.7l-2.8-2.1l-6.3,2.5l-1.4-6.9l-2-1.1l1.7-5.3l-1.2-2.2l2.1-2l0.4-2.5l2.4-2.8l-1.9-4.8l6.7-0.4l3.1-2.1l0,0
			l1.5-2.1l2.8-1.2l1.4-3.1l11.2,0.4l6.3,4.2l1.9,3.6l-2.5,2l2.4,1.9l0.1,2.2l-2.2,7.7l-5.1,5.4l-1.8,3.5l-2-1l-1,5l-2,2.8l-4-0.5
			l-1.7,2.3L733.4-12.1"/>
		<path vector-effect="none" fill="#F1F1F1" stroke="#DFDFDF" stroke-linecap="square" stroke-linejoin="bevel" d="M733.4-12.1
			l-0.1,0.8l-2.2,4.5l-3,0.1L725.8-9l-4-2.3l0-3.3l6.3-2.5l2.8,2.1l2.6-0.7L733.4-12.1"/>
		<path vector-effect="none" fill="#F1F1F1" stroke="#DFDFDF" stroke-linecap="square" stroke-linejoin="bevel" d="M709.1,7.3
			l3.1,1.1l-1.1,3.1l-2.1,0.6L706,9.9L709.1,7.3"/>
		<path vector-effect="none" fill="#F1F1F1" stroke="#DFDFDF" stroke-linecap="square" stroke-linejoin="bevel" d="M718.8-30
			l1.2,2.2l-1.7,5.3l2,1.1l1.4,6.9l0,3.3l4,2.3l2.3,2.4l3-0.1l2.2-4.5l11.4,2.6l4.9-1.2l2.9,1.2l0.6,4.3l-5.4,3l-1.2,3.8l-3.3-0.4
			l-1.8,1.6l-5.2,1.8l-1.5,1.9l-8.1-2.2l-8.6,1.9l-3-2L711.6,7l-3.3-0.3l-5.8,1.3l-4.3-6.4l1.9-0.7l2.9,1.7l1-1.6l-1.5-5.4l2.4-0.8
			l0.3-5.1l-2.7-4.3l0.4-9.9l2.2-0.1l0.8-2.6l2.4-2l0.9,4l5.3-1.7L718.8-30"/>
		<path vector-effect="none" fill="#F1F1F1" stroke="#DFDFDF" stroke-linecap="square" stroke-linejoin="bevel" d="M683.1-55.6
			l1.3,4.8l1.7,0.4l-1.8,1.1l-4,0.2l-1,3.5l2.3,0.8l-0.4,6.8l-3.2,1.9l3,2.3l-1.5,6.9l2,4.1l2-0.2l3.6,2.8l-0.3,2.2l0.2,3.1
			l-7.6,3.4l-0.8,2.1l-2.8,0.6l-3.5-0.6l-2.6-2.2l-2-3.6l-6.1,1.9l-2.4-4.9l-4.5-0.3l-1.1,2.1l-3.4,1.2l-3-7l-2.7-1.3l6.9-2.6l4-2.9
			l2,0.2l5.1-3.2l2.6-5.5l-1.1-3.5l1.3-2.3l-2.5-5.7l-3.8,1.1l-0.9,2l-4-0.2l2-2.8l4.8-3.2l0.8-2.5l3-2.7l4.5-1.4l3.7,0.2l4.7-1
			L683.1-55.6"/>
		<path vector-effect="none" fill="#F1F1F1" stroke="#DFDFDF" stroke-linecap="square" stroke-linejoin="bevel" d="M659.8-62.6
			l2.1,0.5l1.2,3.1l1.8,0.9l-4.3,3.3l-3.1-3.8l0.1-3.5L659.8-62.6"/>
	</g>
</g>
<path vector-effect="none" fill="#BDBDBD" stroke="#767676" stroke-linecap="square" stroke-linejoin="bevel" d="M1363.9,329.8
	l-0.4,9.9l2.7,4.3l-0.3,5.1l-2.4,0.8l1.5,5.4l-1,1.6l-2.9-1.7l-1.9,0.7l4.3,6.4l-4.6,0.7l0.2,3.1l-7.6-1.2l-0.9,1.3l-5.3-3.5
	l-7.8,1.1l-2.5,1l-3.4,8l-1.8,2.9l-3.9-2.8l-1.5,0.4l-4.3-1.9l-3.8,0.8l-3.6-0.3l-0.7,2.3l-2.9,0.9l-4.6,5.8l-1.7-3.1l-3.2-1.1
	l4.7-3.8l3.3-3.6l0.9-3.1l3.7-1.3l4-4.6l0.8-6.2l3.6,0.7l1.5-2l0.1-3l7.3-1.1l3.9,0.3l2,1.3l4.7-0.6l1.7-1.4l1-3l3.7-2.9l2.9-4.5
	l-1.8-2l0.3-2.2l3.4-2l-0.5-3.2l3.6,1.5l3.2-1.1l4.5-2.7L1363.9,329.8"/>
</svg>
