<?xml version="1.0" encoding="utf-8"?>
<!-- Generator: Adobe Illustrator 17.1.0, SVG Export Plug-In . SVG Version: 6.00 Build 0)  -->
<!DOCTYPE svg PUBLIC "-//W3C//DTD SVG 1.1//EN" "http://www.w3.org/Graphics/SVG/1.1/DTD/svg11.dtd">
<svg version="1.1" id="Layer_1" xmlns="http://www.w3.org/2000/svg" xmlns:xlink="http://www.w3.org/1999/xlink" x="0px" y="0px"
	 viewBox="0 0 119 199" enable-background="new 0 0 119 199" xml:space="preserve">
<g transform="matrix(0.999751,0,0,0.999751,247.97,177.121)">
	<path vector-effect="none" fill="#F1F1F1" stroke="#DCDCDC" stroke-linecap="round" stroke-linejoin="round" d="M-165.8-62.4
		l-1.7,1.3l-2.9-0.4l-2.9,0.7l-2.4-1.2l-2.3,1.6l-2.4-0.1l-1.4-2.5l-0.1-3.6l-2.7-0.6l0-3.4l1-0.5l-2.1-2.7l2.1-3l3.2-2l-1.4-3.3
		l1.9-1.8l0.2,0l0.1-0.2l0-0.1l0-0.2l0.1,0l0.4,0.1l0.4-0.3l1.9,2.4l1.4,0.6l1,2.1l0.7,6l1.7,3.5l0.7,3.7l1.5,2.2L-165.8-62.4"/>
	<path vector-effect="none" fill="#F1F1F1" stroke="#DCDCDC" stroke-linecap="round" stroke-linejoin="round" d="M-156.7-43.8
		l-1.3,1l-2-2.5l-1.9,2.5l-1.7,0.3l-1.2-1.1l-0.1-0.9l0.3-1.3l0.3-0.6l-0.1-0.4l0.9-0.3l0.8,0.6l2.7-0.7L-156.7-43.8"/>
	<path vector-effect="none" fill="#F1F1F1" stroke="#DCDCDC" stroke-linecap="round" stroke-linejoin="round" d="M-165.5-42.3
		l-3.1,0.6l-1.8,2.3l-1.5-0.6l-2.3,0.5l-1.6-2.7l-1.8-1.4l-1.7-2.6l-1.2-0.7l1.4-1.9l-2-2.8l-2.6-1.2l-0.9-1.9l2.5-1.7l-0.4-1.9l2-2
		l2.4,0.1l2.3-1.6l2.4,1.2l2.9-0.7l2.9,0.4l1.7-1.3l2.2,1.2l2.1,3.8l2.5,3.2l-0.4,1.6l1,2.6l2.7,3.6l-2.4,0.6l-1.9-1.9l-3,0.6
		l-0.7-0.4l-0.9,0.5l0.1,0.6l-0.3,0.6l-0.3,1.3L-165.5-42.3"/>
	<path vector-effect="none" fill="#F1F1F1" stroke="#DCDCDC" stroke-linecap="round" stroke-linejoin="round" d="M-156.7-43.8
		l1.8,1.1l1.8,3.9l-0.1,2.7l-2.8,3.3l1.8,1.7l-0.4,1.6l-2.2,1.5l-4.7,0.2l1.3,3.3l-1.7,1.9l-0.3,1.7l-1.5,1.4l-3.1,2.2l-3.7,1.2
		l-0.6-2.8l1.8-3.5l-1.5-2.4l-2.4-1.4l-0.3-1.8l-1.6-1.4l0.6-2.1l-2.4-1.2l1-1.4l-0.8-3.2l-1.7-0.7l-0.3-3l1.2-2.9l1.8,1.4l1.6,2.7
		l2.3-0.5l1.5,0.6l1.8-2.3l3.1-0.6l0.6-1.2l1.2,1.1l1.7-0.3l1.9-2.5l2,2.5L-156.7-43.8"/>
	<path vector-effect="none" fill="#F1F1F1" stroke="#DCDCDC" stroke-linecap="round" stroke-linejoin="round" d="M-171.1-18.8
		l-1.7,1.4l-0.5,1.8l-1.5,0.1l-1.2-2.3l-3.2,1.9l-2.3,0.8l-2.5-1.1l0.4,2.2l-2.4,1.4l-2.5-2l-1.4,0.2l-1.4-2.8l1-4.8l-2.1-1.6
		l2.2-1.3l0.3-4.8l-1.6-0.6l0.7-2.5l2.8-0.2l1.3-0.7l2.8,0.4l1-1.6l4.3-2.9l1.7,0.7l0.8,3.2l-1,1.4l2.4,1.2l-0.6,2.1l1.6,1.4
		l0.3,1.8l2.4,1.4l1.5,2.4L-171.1-18.8"/>
	<path vector-effect="none" fill="#F1F1F1" stroke="#DCDCDC" stroke-linecap="round" stroke-linejoin="round" d="M-153.4-6.7
		l0.1-2.6l-1.8,0.5l-2-1.5l-4.4,1.8l-1-4.8l-1.4-0.8l1.2-3.7l-0.9-1.5l1.5-1.4l0.3-1.7l1.7-1.9l-1.3-3.3l4.7-0.2l2.2-1.5l0,0l1-1.5
		l1.9-0.8l1-2.2l7.8,0.3l4.4,3l1.3,2.5l-1.8,1.4l1.7,1.4l0.1,1.5l-1.5,5.4l-3.6,3.8l-1.2,2.4l-1.4-0.7l-0.7,3.5l-1.4,2l-2.8-0.4
		l-1.2,1.6L-153.4-6.7"/>
	<path vector-effect="none" fill="#F1F1F1" stroke="#DCDCDC" stroke-linecap="round" stroke-linejoin="round" d="M-153.4-6.7
		l-0.1,0.6l-1.6,3.1l-2.1,0.1l-1.6-1.7l-2.8-1.6l0-2.3l4.4-1.8l2,1.5l1.8-0.5L-153.4-6.7"/>
	<path vector-effect="none" fill="#F1F1F1" stroke="#DCDCDC" stroke-linecap="round" stroke-linejoin="round" d="M-170.5,6.8
		l2.2,0.8l-0.8,2.2l-1.5,0.4l-2.1-1.6L-170.5,6.8"/>
	<path vector-effect="none" fill="#F1F1F1" stroke="#DCDCDC" stroke-linecap="round" stroke-linejoin="round" d="M-163.7-19.4
		l0.9,1.5l-1.2,3.7l1.4,0.8l1,4.8l0,2.3l2.8,1.6l1.6,1.7l2.1-0.1l1.6-3.1l8,1.8l3.4-0.8l2.1,0.8l0.4,3l-3.8,2.1l-0.8,2.7l-2.3-0.3
		l-1.3,1.1l-3.6,1.3l-1,1.3l-5.7-1.5l-6,1.3l-2.1-1.4l-2.4,1.3l-2.3-0.2l-4,0.9l-3-4.5l1.3-0.5l2,1.2l0.7-1.1l-1.1-3.8l1.7-0.6
		l0.2-3.6l-1.9-3l0.3-7l1.5-0.1l0.5-1.8l1.7-1.4l0.6,2.8l3.7-1.2L-163.7-19.4"/>
	<path vector-effect="none" fill="#F1F1F1" stroke="#DCDCDC" stroke-linecap="round" stroke-linejoin="round" d="M-174.8-15.4
		l-0.3,7l1.9,3l-0.2,3.6l-1.7,0.6l1.1,3.8l-0.7,1.1l-2-1.2l-1.3,0.5l3,4.5l-3.2,0.5l0.2,2.2l-5.3-0.8l-0.6,0.9l-3.7-2.5l-5.5,0.8
		l-1.7,0.7l-2.4,5.6l-1.3,2l-2.7-2l-1.1,0.3l-3-1.3l-2.7,0.6l-2.5-0.2l-0.5,1.6l-2,0.7l-3.2,4.1l-1.2-2.2l-2.3-0.8l3.3-2.7l2.3-2.5
		l0.6-2.2l2.6-0.9l2.8-3.2l0.6-4.3l2.6,0.5l1.1-1.4l0.1-2.1l5.1-0.7l2.7,0.2l1.4,0.9l3.3-0.4l1.2-1l0.7-2.1l2.6-2l2-3.1l-1.2-1.4
		l0.2-1.5l2.4-1.4l-0.4-2.2l2.5,1.1l2.3-0.8l3.2-1.9L-174.8-15.4"/>
	<path vector-effect="none" fill="#F1F1F1" stroke="#DCDCDC" stroke-linecap="round" stroke-linejoin="round" d="M-212.2-84.3
		l1.7,3.2l-0.4,2l-1.4,0l-1.3-3.2L-212.2-84.3"/>
	<path vector-effect="none" fill="#F1F1F1" stroke="#DCDCDC" stroke-linecap="round" stroke-linejoin="round" d="M-220.8-88.8
		l0.8,4.8l-2.3,1.5l-0.9-3.6l0.5-1.5L-220.8-88.8"/>
	<path vector-effect="none" fill="#F1F1F1" stroke="#DCDCDC" stroke-linecap="round" stroke-linejoin="round" d="M-216.3-92.4
		l-3,6.4l-1.2-1.9l1.6-2.6L-216.3-92.4"/>
	<path vector-effect="none" fill="#F1F1F1" stroke="#DCDCDC" stroke-linecap="round" stroke-linejoin="round" d="M-220-101.8
		l1.5,2.4l3.1,1.7l-2.1,2.4l-4.1,0.2l1.5-3.3l-1.8-1.7L-220-101.8"/>
	<path vector-effect="none" fill="#F1F1F1" stroke="#DCDCDC" stroke-linecap="round" stroke-linejoin="round" d="M-231-116.3l1,1.9
		l-0.6,3.1l-1.6-0.4l0.4-3.8L-231-116.3"/>
	<path vector-effect="none" fill="#F1F1F1" stroke="#DCDCDC" stroke-linecap="round" stroke-linejoin="round" d="M-221.1-121.2
		l1.9,2.4l0,4.9l4.2,2.2l-3.5,3.3l-0.8-2.8l-2.5-0.5l-1.9-2.8l-2-1.8l0.8-1.5l3.4,0.1L-221.1-121.2"/>
	<path vector-effect="none" fill="#F1F1F1" stroke="#DCDCDC" stroke-linecap="round" stroke-linejoin="round" d="M-229-122.3
		l0.9,1.9l-1.3,2.3l-1.2-0.1l-2.1-1.7l2.9-1.2L-229-122.3"/>
	<path vector-effect="none" fill="#F1F1F1" stroke="#DCDCDC" stroke-linecap="round" stroke-linejoin="round" d="M-219.3-135.8
		l0.4,3.3l-1.7,1.8l-0.3,3.9l-1.1,1.4l-1.8,0.2l-0.9,1.6l-2.5,1.6l-1.2-1.6l2-1.6l-1.4-1.1l-0.3-3l1-1.8l2.2-0.8l4.8-2.9
		L-219.3-135.8"/>
	<path vector-effect="none" fill="#F1F1F1" stroke="#DCDCDC" stroke-linecap="round" stroke-linejoin="round" d="M-178.9-85.2
		l-0.5,0.9l-0.2,0l-0.1,0.1l0,0.1l-0.1,0.2l0,0l-0.2,0l-1.9,1.8l1.4,3.3l-3.2,2l-2.1,3l-3.9,3.5l-5.5,0.5l-4.1,3.4l-4.1-0.9
		l-0.5,2.5l-4.3-3.5l-2.1,1.5l-1.8-2.7l2.2-4.1l1.4-1.4l0.3-1.9l2.5-3l-0.5-1.7l-2.3-2.5l-1.1-2.7l-1.7-1.4l-1.3,1.3l-0.2,1.7
		l-1.3,1l-2,7.2l-2,0l1-2.6l0.1-2.4l1.7-3.4l-0.9-0.6l-0.3-3.1l2.3-3.8l-0.6-2.8l2.9-5.7l-1.8,0.8l-1.6,1.7l-2.6-0.9l-2.3-2.5l0-1.4
		l2-0.3l1.9-5l1.9-2.6l-0.4-2.4l-1.4-0.8l-0.3-2.3l1-3.5l-0.1-2.9l2.2,0.5l1.6-1.2l1.9,0l-1.2-2.9l0.9-0.6l-1-2.4l2.5-0.6l0.2-4.5
		l2.4-1.7l2.1,1.5l2.2,0.3l6-0.5l1.3-1l2.7,0.5l0.3-1l2.8,0.1l-0.7,2.2l0.7,1.4l-1.6,2.5l-1.5,0.6l-1.4,1.9l-4.7,3.6l-0.5,1.9
		l1.7,0.8l-1.9,4.6l4.5-1.3l2.4-1.4l3.1,1.2l1.8-0.7l4.4,0.7l3.1-0.6l2.5,1.6l0.4,2.8l-2,2.7l-0.8,3.8l-1.4,2.6l-0.3,1.9l-1.7,1.6
		L-184-99l-2.7,2.3l0.2,2l1.8,1.3l-2.7,1.4l-1-0.4l-2.3,2.6l1.2,2.2l1.7-0.7l0.9-1.4l2,0.3l2.9,2.1l2,0.3L-178.9-85.2"/>
	<path vector-effect="none" fill="#F1F1F1" stroke="#DCDCDC" stroke-linecap="round" stroke-linejoin="round" d="M-190-146.3l2,1.7
		l0.2,2.3l-2.2,0.5l-1.5-1.6l0.2-2.1L-190-146.3"/>
	<path vector-effect="none" fill="#F1F1F1" stroke="#DCDCDC" stroke-linecap="round" stroke-linejoin="round" d="M-172.4-173.3
		l0,2.6l2.1,2.5l-1.2,2.2l0.6,1.6l-2.8,0l-1.7-1.1l-0.4-1.6l2.9-0.7l-1.1-3.8L-172.4-173.3"/>
	<path vector-effect="none" fill="#F1F1F1" stroke="#DCDCDC" stroke-linecap="round" stroke-linejoin="round" d="M-188.7-37.3
		l0.9,3.4l1.2,0.3l-1.3,0.7l-2.8,0.2l-0.7,2.5l1.6,0.6l-0.3,4.8l-2.2,1.3l2.1,1.6l-1,4.8l1.4,2.8l1.4-0.2l2.5,2l-0.2,1.5l0.1,2.2
		l-5.3,2.4l-0.6,1.5l-2,0.4l-2.5-0.4l-1.8-1.5l-1.4-2.5l-4.3,1.3l-1.7-3.5l-3.2-0.2l-0.7,1.4l-2.4,0.9l-2.1-4.9l-1.9-0.9l4.8-1.8
		l2.8-2l1.4,0.1l3.6-2.2l1.8-3.9l-0.8-2.5l0.9-1.6l-1.7-4l-2.7,0.8l-0.7,1.4l-2.8-0.1l1.4-1.9l3.3-2.2l0.6-1.8l2.1-1.9l3.1-1
		l2.6,0.1l3.3-0.7L-188.7-37.3"/>
	<path vector-effect="none" fill="#F1F1F1" stroke="#DCDCDC" stroke-linecap="round" stroke-linejoin="round" d="M-205-42.2l1.5,0.3
		l0.9,2.2l1.2,0.6l-3,2.3l-2.2-2.6l0.1-2.5L-205-42.2"/>
</g>
<g>
	<path fill="#F1F1F1" d="M26,122.9c-0.1,0-0.2,0-0.2-0.1l-2.2-1.2l-1.1,0.8c-0.1,0.1-0.2,0.1-0.3,0.1c0,0-0.1,0-0.1,0l-3.3-0.8
		c-0.2,0-0.3-0.2-0.4-0.4l-1.1-4.2l-1.5-1.3l-1,2.5c0,0.1-0.1,0.2-0.2,0.2l-2,1.3c0,0-0.1,0.1-0.2,0.1l-1.6,0.4c0,0-0.1,0-0.1,0
		c-0.1,0-0.1,0-0.2,0l-3.8-1.8c-0.1-0.1-0.2-0.2-0.3-0.3l-0.4-1.7l-2.5-3c-0.1-0.1-0.1-0.3-0.1-0.4c0-0.2,0.1-0.3,0.3-0.3l2.4-1
		l1.6-1.3l-1.2-0.3c-0.1,0-0.3-0.1-0.3-0.3c-0.1-0.1-0.1-0.3,0-0.4l0.5-1.2c0.1-0.2,0.3-0.3,0.5-0.3c0,0,1.8,0.1,1.8,0.1l1-0.9
		l1.4-2.4l0.9-2.1c0.1-0.2,0.3-0.3,0.5-0.3c0,0,3.2,0.3,3.2,0.3l1.9-1.9c0.1-0.1,0.2-0.1,0.3-0.2l2.5-0.2l1.5-0.9
		c0.1,0,0.2-0.1,0.2-0.1c0,0,0.1,0,0.1,0l4.3,1.2c0.2,0,0.3,0.2,0.3,0.3l0.9,2.7l2.6,5.3c0.1,0.2,0,0.5-0.2,0.7l-1.9,1l0.1,0.3
		l2.9-0.9c0,0,0.1,0,0.1,0c0.1,0,0.2,0,0.2,0.1c0.1,0.1,0.2,0.2,0.2,0.3l1.1,3.8c0.1,0.2,0,0.4-0.1,0.5l-1,0.9
		c-0.1,0.1-0.2,0.1-0.3,0.1c0,0-0.1,0-0.1,0c-0.2-0.1-0.3-0.2-0.3-0.4l-0.4-1.5h-0.3l0.5,2.1l0.8,0.4c0.1,0.1,0.2,0.2,0.2,0.3
		s0,0.3-0.1,0.4L31,119c0,0.1-0.1,0.1-0.2,0.2l-2.4,1.4l-2,2.1C26.3,122.9,26.1,122.9,26,122.9z"/>
	<path fill="#DCDCDC" d="M22.4,100l4.3,1.2l0.9,2.7l2.6,5.4l-2.3,1.2l0.2,1.3l3.4-1l1.1,3.8l-1,0.9l-0.5-1.9h-1.3l0.7,3l1,0.5
		l-1.1,1.7l-2.5,1.5l-2,2.2l-2.5-1.4l-1.3,1l-3.3-0.8l-1.2-4.3l-2.1-1.9l-1.3,3.1l-2,1.3l-1.6,0.4l-3.8-1.8l-0.4-1.8l-2.6-3l2.5-1
		l2.4-2l-2.2-0.5l0.5-1.2l2,0.1l1.3-1.1l1.5-2.5l0.9-2.1l3.4,0.3l2-2.1l2.6-0.2L22.4,100 M22.4,99c-0.2,0-0.3,0-0.5,0.1l-1.5,0.8
		l-2.4,0.2c-0.2,0-0.5,0.1-0.6,0.3l-1.7,1.8l-2.9-0.3c0,0-0.1,0-0.1,0c-0.4,0-0.8,0.2-0.9,0.6l-0.9,2.1L9.6,107l-0.8,0.7l-1.6-0.1
		c0,0,0,0,0,0c-0.4,0-0.8,0.2-0.9,0.6l-0.5,1.2c-0.1,0.3-0.1,0.6,0,0.8c0.1,0.3,0.4,0.4,0.7,0.5l0.2,0l-0.7,0.6l-2.4,1
		c-0.3,0.1-0.5,0.4-0.6,0.7c-0.1,0.3,0,0.6,0.2,0.9l2.4,2.9l0.3,1.6c0.1,0.3,0.3,0.6,0.5,0.7l3.8,1.8c0.1,0.1,0.3,0.1,0.4,0.1
		c0.1,0,0.2,0,0.2,0l1.6-0.4c0.1,0,0.2-0.1,0.3-0.1l2-1.3c0.2-0.1,0.3-0.3,0.4-0.5l0.7-1.8l0.8,0.7l1.1,4c0.1,0.4,0.4,0.6,0.7,0.7
		l3.3,0.8c0.1,0,0.2,0,0.2,0c0.2,0,0.4-0.1,0.6-0.2l0.8-0.6l1.9,1.1c0.2,0.1,0.3,0.1,0.5,0.1c0.3,0,0.5-0.1,0.7-0.3l1.9-2.1l2.4-1.4
		c0.1-0.1,0.2-0.2,0.3-0.3l1.1-1.7c0.1-0.2,0.2-0.5,0.1-0.8c-0.1-0.2-0.2-0.4-0.4-0.5c0.1,0,0.1-0.1,0.1-0.1l1-0.9
		c0.3-0.3,0.4-0.6,0.3-1l-1.1-3.8c-0.1-0.3-0.2-0.5-0.5-0.6c-0.1-0.1-0.3-0.1-0.5-0.1c-0.1,0-0.2,0-0.3,0l-0.3,0.1
		c0.2-0.3,0.2-0.6,0.1-1l-2.6-5.3l-0.9-2.6c-0.1-0.3-0.4-0.5-0.7-0.6l-4.3-1.2C22.6,99,22.5,99,22.4,99L22.4,99z"/>
</g>
<path vector-effect="none" fill="#BDBDBD" stroke="#767676" stroke-linecap="round" stroke-linejoin="round" d="M67.6,116.6l-2,2
	l0.4,1.9l-2.5,1.7l0.9,1.9l2.6,1.2l2,2.8l-1.4,1.9l1.2,0.7l1.7,2.6l-1.2,2.9l0.3,3l-4.3,2.9l-1,1.6l-2.8-0.4l-1.2-0.3l-0.9-3.4l0,0
	l-1.7-1.3l0,0l-0.1,0l-0.1,0l0,0l0,0l0,0l0,0l0,0l0,0l-0.1-0.1l-1-2l1.7-1.2l-0.6-2.4l1.7-2.7l-1.3-1.1l0.1-2.5l2.1-0.9l-0.1-3.9
	l-4,1.1l-1.9-4.1l-2.1-3.2l0.7-2.3l3.2-5.3l2.4-0.9l3.8-3.5l2.1,2.7l-1,0.5l0,3.4l2.7,0.6l0.1,3.6L67.6,116.6"/>
</svg>
